<svg xmlns="http://www.w3.org/2000/svg" xmlns:xlink="http://www.w3.org/1999/xlink" viewBox="0 0 42 66" fill="#fff" fill-rule="evenodd" stroke="#000" stroke-linecap="round" stroke-linejoin="round"><use xlink:href="#A" x="1" y="1"/><symbol id="A" overflow="visible"><path d="M31.076 35.448a8.32 8.32 0 0 0-6.256 2.84l-3.92-2.776c.416-1.146.656-2.376.656-3.664a10.7 10.7 0 0 0-.634-3.604l3.912-2.746a8.32 8.32 0 0 0 6.244 2.828 8.36 8.36 0 0 0 8.344-8.344 8.36 8.36 0 0 0-8.344-8.344 8.36 8.36 0 0 0-8.344 8.344c0 .824.124 1.6.348 2.37L19.168 25.1c-1.636-2.028-3.99-3.446-6.672-3.88V16.5a8.36 8.36 0 0 0 6.626-8.164A8.36 8.36 0 0 0 10.776 0a8.36 8.36 0 0 0-8.344 8.344c0 3.96 2.774 7.274 6.48 8.126v4.8C3.856 22.134 0 26.546 0 31.85c0 5.33 3.894 9.76 8.986 10.616v5.046a8.34 8.34 0 0 0-6.552 8.144A8.36 8.36 0 0 0 10.776 64a8.36 8.36 0 0 0 8.344-8.344c0-3.986-2.81-7.32-6.552-8.144v-5.046a10.77 10.77 0 0 0 6.56-3.814l3.946 2.794a8.3 8.3 0 0 0-.342 2.346 8.36 8.36 0 0 0 8.344 8.344 8.36 8.36 0 0 0 8.344-8.344 8.36 8.36 0 0 0-8.344-8.344zm0-19.508a4.05 4.05 0 0 1 4.044 4.046 4.05 4.05 0 0 1-4.044 4.044 4.05 4.05 0 0 1-4.044-4.044 4.05 4.05 0 0 1 4.044-4.046zM6.732 8.344A4.05 4.05 0 0 1 10.778 4.3a4.05 4.05 0 0 1 4.044 4.044 4.05 4.05 0 0 1-4.044 4.044 4.05 4.05 0 0 1-4.046-4.044zM14.82 55.66a4.05 4.05 0 0 1-4.044 4.044A4.05 4.05 0 0 1 6.73 55.66a4.05 4.05 0 0 1 4.046-4.044 4.05 4.05 0 0 1 4.044 4.044zm-4.046-18.164c-3.112 0-5.64-2.53-5.64-5.64a5.65 5.65 0 0 1 5.64-5.64 5.65 5.65 0 0 1 5.64 5.64 5.65 5.65 0 0 1-5.64 5.64zm20.3 10.344a4.05 4.05 0 0 1-4.044-4.046 4.05 4.05 0 0 1 4.044-4.044 4.05 4.05 0 0 1 4.044 4.044 4.05 4.05 0 0 1-4.044 4.046z" stroke="none" fill="#000" fill-rule="nonzero"/></symbol></svg>