<?xml version="1.0" encoding="UTF-8" standalone="no"?>
<svg
   xmlns:dc="http://purl.org/dc/elements/1.1/"
   xmlns:cc="http://creativecommons.org/ns#"
   xmlns:rdf="http://www.w3.org/1999/02/22-rdf-syntax-ns#"
   xmlns:svg="http://www.w3.org/2000/svg"
   xmlns="http://www.w3.org/2000/svg"
   xmlns:sodipodi="http://sodipodi.sourceforge.net/DTD/sodipodi-0.dtd"
   xmlns:inkscape="http://www.inkscape.org/namespaces/inkscape"
   width="100"
   height="100"
   preserveAspectRatio="xMidYMid meet"
   viewBox="0 0 100 100"
   style="-ms-transform: rotate(360deg); -webkit-transform: rotate(360deg); transform: rotate(360deg);"
   version="1.1"
   id="svg8"
   sodipodi:docname="arrows-expand.svg"
   inkscape:version="0.92.5 (2060ec1f9f, 2020-04-08)">
  <metadata
     id="metadata14">
    <rdf:RDF>
      <cc:Work
         rdf:about="">
        <dc:format>image/svg+xml</dc:format>
        <dc:type
           rdf:resource="http://purl.org/dc/dcmitype/StillImage" />
      </cc:Work>
    </rdf:RDF>
  </metadata>
  <defs
     id="defs12" />
  <sodipodi:namedview
     pagecolor="#ffffff"
     bordercolor="#666666"
     borderopacity="1"
     objecttolerance="10"
     gridtolerance="10"
     guidetolerance="10"
     inkscape:pageopacity="0"
     inkscape:pageshadow="2"
     inkscape:window-width="834"
     inkscape:window-height="480"
     id="namedview10"
     showgrid="false"
     inkscape:zoom="2.36"
     inkscape:cx="50"
     inkscape:cy="50"
     inkscape:window-x="0"
     inkscape:window-y="28"
     inkscape:window-maximized="0"
     inkscape:current-layer="svg8" />
  <path
     d="M5.128 67.194L.024 97.962c-.093.558.09 1.125.489 1.524l.002.003c.403.4.972.581 1.531.486l30.685-5.186a1.748 1.748 0 0 0 1.376-1.197a1.746 1.746 0 0 0-.431-1.771l-6-5.999l16.109-16.108a1.75 1.75 0 0 0 0-2.478L32.684 56.134a1.752 1.752 0 0 0-2.479 0L14.098 72.242L8.096 66.24a1.752 1.752 0 0 0-2.968.954z"
     fill="#626262"
     id="path2" />
  <path
     d="M94.872 32.806l5.104-30.768a1.748 1.748 0 0 0-.489-1.524l-.002-.003a1.762 1.762 0 0 0-1.531-.487L67.269 5.21a1.755 1.755 0 0 0-.946 2.969l6.001 5.998l-16.109 16.109a1.753 1.753 0 0 0 0 2.48l11.102 11.101a1.752 1.752 0 0 0 2.479 0l16.107-16.108l6.001 6.001a1.76 1.76 0 0 0 1.775.43a1.757 1.757 0 0 0 1.193-1.384z"
     fill="#626262"
     id="path4" />
</svg>
