<?xml version="1.0" encoding="UTF-8" standalone="no"?>
<svg
   xmlns:dc="http://purl.org/dc/elements/1.1/"
   xmlns:cc="http://creativecommons.org/ns#"
   xmlns:rdf="http://www.w3.org/1999/02/22-rdf-syntax-ns#"
   xmlns:svg="http://www.w3.org/2000/svg"
   xmlns="http://www.w3.org/2000/svg"
   xmlns:sodipodi="http://sodipodi.sourceforge.net/DTD/sodipodi-0.dtd"
   xmlns:inkscape="http://www.inkscape.org/namespaces/inkscape"
   width="36"
   height="36"
   preserveAspectRatio="xMidYMid meet"
   viewBox="0 0 36 36"
   style="-ms-transform: rotate(360deg); -webkit-transform: rotate(360deg); transform: rotate(360deg);"
   version="1.1"
   id="svg6"
   sodipodi:docname="settings-solid.svg"
   inkscape:version="0.92.5 (2060ec1f9f, 2020-04-08)">
  <metadata
     id="metadata12">
    <rdf:RDF>
      <cc:Work
         rdf:about="">
        <dc:format>image/svg+xml</dc:format>
        <dc:type
           rdf:resource="http://purl.org/dc/dcmitype/StillImage" />
      </cc:Work>
    </rdf:RDF>
  </metadata>
  <defs
     id="defs10" />
  <sodipodi:namedview
     pagecolor="#ffffff"
     bordercolor="#666666"
     borderopacity="1"
     objecttolerance="10"
     gridtolerance="10"
     guidetolerance="10"
     inkscape:pageopacity="0"
     inkscape:pageshadow="2"
     inkscape:window-width="2560"
     inkscape:window-height="1357"
     id="namedview8"
     showgrid="false"
     inkscape:zoom="6.5555556"
     inkscape:cx="-8.0847456"
     inkscape:cy="18"
     inkscape:window-x="0"
     inkscape:window-y="28"
     inkscape:window-maximized="1"
     inkscape:current-layer="svg6" />
  <path
     class="clr-i-solid clr-i-solid-path-1"
     d="m 23.256834,19.212579 -2.1406,-0.638985 a 7.444174,7.444174 0 0 0 -0.607035,-1.488835 l 1.047935,-1.961683 a 0.38978078,0.38978078 0 0 0 -0.07029,-0.46007 L 19.95967,13.129443 a 0.38978078,0.38978078 0 0 0 -0.460069,-0.07029 l -1.948904,1.041546 a 7.4250045,7.4250045 0 0 0 -1.508003,-0.638984 l -0.638984,-2.11504 a 0.38978078,0.38978078 0 0 0 -0.377002,-0.261984 h -2.159769 a 0.38978078,0.38978078 0 0 0 -0.370611,0.274763 l -0.638985,2.108651 A 7.4313943,7.4313943 0 0 0 10.33656,14.10709 L 8.4196049,13.071934 a 0.38978078,0.38978078 0 0 0 -0.4600691,0.07029 l -1.5527333,1.514395 a 0.38978078,0.38978078 0 0 0 -0.070288,0.460069 L 7.37167,17.033642 a 7.4313943,7.4313943 0 0 0 -0.6389849,1.514394 l -2.11504,0.638985 A 0.38978078,0.38978078 0 0 0 4.3428813,19.55763 v 2.159769 a 0.38978078,0.38978078 0 0 0 0.2747635,0.370612 l 2.1278197,0.638984 a 7.4250045,7.4250045 0 0 0 0.6389849,1.488835 l -1.0479352,2.006413 a 0.38978078,0.38978078 0 0 0 0.070288,0.460069 l 1.5271739,1.527174 a 0.38978078,0.38978078 0 0 0 0.4600691,0.07029 l 1.9744638,-1.054325 a 7.444174,7.444174 0 0 0 1.469665,0.600646 l 0.638985,2.153379 a 0.38978078,0.38978078 0 0 0 0.370611,0.274764 h 2.159769 a 0.38978078,0.38978078 0 0 0 0.370611,-0.274764 l 0.638985,-2.159769 a 7.4313943,7.4313943 0 0 0 1.456886,-0.600646 l 1.987243,1.060715 a 0.38978078,0.38978078 0 0 0 0.460069,-0.07029 l 1.527174,-1.527174 a 0.38978078,0.38978078 0 0 0 0.07029,-0.460069 L 20.458082,24.24139 a 7.4313943,7.4313943 0 0 0 0.607036,-1.463276 l 2.153379,-0.638985 A 0.38978078,0.38978078 0 0 0 23.49326,21.768518 V 19.58958 a 0.38978078,0.38978078 0 0 0 -0.236424,-0.377001 z m -9.31001,4.971302 a 3.5144169,3.5144169 0 1 1 3.514417,-3.514417 3.5144169,3.5144169 0 0 1 -3.514417,3.514417 z"
     id="path2"
     inkscape:connector-curvature="0"
     style="fill:#588bf8;stroke-width:0.63898492;fill-opacity:1" />
  <path
     inkscape:connector-curvature="0"
     style="fill:#588bf8;stroke-width:0.37905425;fill-opacity:1"
     class="clr-i-solid clr-i-solid-path-1"
     d="m 25.402854,4.9595583 -1.325178,-0.00755 A 4.4159821,4.4159821 0 0 0 23.484237,4.2053255 l 0.270176,-1.291372 A 0.23122309,0.23122309 0 0 0 23.637817,2.6636965 L 22.513019,2.044691 A 0.23122309,0.23122309 0 0 0 22.239364,2.081244 L 21.303039,2.9986604 A 4.4046104,4.4046104 0 0 0 20.338051,2.8858242 l -0.715856,-1.09792 a 0.23122309,0.23122309 0 0 0 -0.258263,-0.086422 l -1.22974,0.3594722 a 0.23122309,0.23122309 0 0 0 -0.16529,0.2181311 l -0.01286,1.3069869 a 4.408401,4.408401 0 0 0 -0.75956,0.6169479 L 15.932701,3.9326762 a 0.23122309,0.23122309 0 0 0 -0.250258,0.1165951 l -0.632047,1.1207109 a 0.23122309,0.23122309 0 0 0 0.03655,0.2736565 L 15.995403,6.362833 A 4.408401,4.408401 0 0 0 15.88363,7.3314593 L 14.785714,8.047315 a 0.23122309,0.23122309 0 0 0 -0.09476,0.2567522 l 0.359474,1.2297401 a 0.23122309,0.23122309 0 0 0 0.218131,0.1652891 l 1.317902,0.00967 a 4.4046104,4.4046104 0 0 0 0.611629,0.7413676 l -0.262723,1.316837 a 0.23122309,0.23122309 0 0 0 0.116596,0.250257 l 1.123734,0.615368 a 0.23122309,0.23122309 0 0 0 0.273656,-0.03655 L 19.3981,11.667098 a 4.4159821,4.4159821 0 0 0 0.936778,0.09739 l 0.722237,1.119749 a 0.23122309,0.23122309 0 0 0 0.256752,0.09476 l 1.229736,-0.359473 a 0.23122309,0.23122309 0 0 0 0.16529,-0.218132 l 0.0044,-1.336093 a 4.408401,4.408401 0 0 0 0.729559,-0.584482 l 1.308051,0.273198 A 0.23122309,0.23122309 0 0 0 25.00116,10.637419 L 25.61648,9.5136986 A 0.23122309,0.23122309 0 0 0 25.579924,9.2400431 L 24.646283,8.2887133 A 4.408401,4.408401 0 0 0 24.748375,7.3545104 L 25.868124,6.6322732 A 0.23122309,0.23122309 0 0 0 25.962885,6.375521 L 25.600222,5.1348656 A 0.23122309,0.23122309 0 0 0 25.402858,4.9595572 Z m -4.473559,4.3801453 a 2.0847984,2.0847984 0 1 1 1.416118,-2.5859974 2.0847984,2.0847984 0 0 1 -1.416118,2.5859974 z"
     id="path2-3"
     inkscape:transform-center-x="-1.4123884"
     inkscape:transform-center-y="2.0122928" />
  <path
     inkscape:connector-curvature="0"
     style="fill:#588bf8;stroke-width:0.37905425;fill-opacity:1"
     class="clr-i-solid clr-i-solid-path-1"
     d="M 33.210859,26.192928 32.042441,25.567664 A 4.4159821,4.4159821 0 0 0 31.866177,24.630306 L 32.70792,23.61438 a 0.23122309,0.23122309 0 0 0 0.0137,-0.275746 l -0.70578,-1.072479 a 0.23122309,0.23122309 0 0 0 -0.259073,-0.09542 l -1.256298,0.374258 A 4.4046104,4.4046104 0 0 0 29.69974,21.994751 L 29.579169,20.68963 A 0.23122309,0.23122309 0 0 0 29.391111,20.492645 L 28.135772,20.23651 a 0.23122309,0.23122309 0 0 0 -0.247999,0.11575 l -0.621475,1.149848 a 4.408401,4.408401 0 0 0 -0.959717,0.191046 L 25.31514,20.864147 a 0.23122309,0.23122309 0 0 0 -0.275746,-0.0137 l -1.082105,0.696079 a 0.23122309,0.23122309 0 0 0 -0.09542,0.259073 l 0.374333,1.23697 a 4.408401,4.408401 0 0 0 -0.551,0.804442 l -1.305122,0.120572 a 0.23122309,0.23122309 0 0 0 -0.203654,0.182824 l -0.256135,1.25534 a 0.23122309,0.23122309 0 0 0 0.11575,0.247998 l 1.16099,0.623749 a 4.4046104,4.4046104 0 0 0 0.194835,0.941147 l -0.84704,1.041925 a 0.23122309,0.23122309 0 0 0 -0.0137,0.275746 l 0.706538,1.068766 a 0.23122309,0.23122309 0 0 0 0.259073,0.09542 l 1.27267,-0.378656 a 4.4159821,4.4159821 0 0 0 0.782991,0.523411 l 0.116025,1.327406 a 0.23122309,0.23122309 0 0 0 0.182827,0.203656 l 1.255335,0.256135 a 0.23122309,0.23122309 0 0 0 0.248,-0.115752 l 0.627537,-1.17956 a 4.408401,4.408401 0 0 0 0.91803,-0.17634 l 1.029267,0.852203 a 0.23122309,0.23122309 0 0 0 0.275746,0.0137 l 1.068764,-0.70654 a 0.23122309,0.23122309 0 0 0 0.09542,-0.259073 l -0.381611,-1.27714 a 4.408401,4.408401 0 0 0 0.526368,-0.77852 l 1.327405,-0.116024 a 0.23122309,0.23122309 0 0 0 0.203655,-0.182829 l 0.258409,-1.266481 a 0.23122309,0.23122309 0 0 0 -0.09271,-0.247166 z m -6.000896,1.785398 a 2.0847984,2.0847984 0 1 1 2.459501,-1.625923 2.0847984,2.0847984 0 0 1 -2.459501,1.625923 z"
     id="path2-3-6" />
</svg>
