<?xml version="1.0" encoding="UTF-8" standalone="no"?>
<svg
   xmlns:dc="http://purl.org/dc/elements/1.1/"
   xmlns:cc="http://creativecommons.org/ns#"
   xmlns:rdf="http://www.w3.org/1999/02/22-rdf-syntax-ns#"
   xmlns:svg="http://www.w3.org/2000/svg"
   xmlns="http://www.w3.org/2000/svg"
   xmlns:sodipodi="http://sodipodi.sourceforge.net/DTD/sodipodi-0.dtd"
   xmlns:inkscape="http://www.inkscape.org/namespaces/inkscape"
   width="24"
   height="24"
   preserveAspectRatio="xMidYMid meet"
   viewBox="0 0 24 24"
   style="-ms-transform: rotate(360deg); -webkit-transform: rotate(360deg); transform: rotate(360deg);"
   version="1.1"
   id="svg6"
   sodipodi:docname="settings-alt.svg"
   inkscape:version="0.92.5 (2060ec1f9f, 2020-04-08)">
  <metadata
     id="metadata12">
    <rdf:RDF>
      <cc:Work
         rdf:about="">
        <dc:format>image/svg+xml</dc:format>
        <dc:type
           rdf:resource="http://purl.org/dc/dcmitype/StillImage" />
      </cc:Work>
    </rdf:RDF>
  </metadata>
  <defs
     id="defs10" />
  <sodipodi:namedview
     pagecolor="#ffffff"
     bordercolor="#666666"
     borderopacity="1"
     objecttolerance="10"
     gridtolerance="10"
     guidetolerance="10"
     inkscape:pageopacity="0"
     inkscape:pageshadow="2"
     inkscape:window-width="2560"
     inkscape:window-height="1357"
     id="namedview8"
     showgrid="false"
     inkscape:zoom="9.8333333"
     inkscape:cx="12"
     inkscape:cy="12"
     inkscape:window-x="0"
     inkscape:window-y="28"
     inkscape:window-maximized="1"
     inkscape:current-layer="svg6" />
  <path
     d="M 16,13 5,13 a 1,1 0 1 1 0,-2 l 11,0 v -1 a 1,1 0 0 1 2,0 v 1 h 1 a 1,1 0 0 1 0,2 h -1 v 1 a 1,1 0 0 1 -2,0 z M 6,6 H 5 A 1,1 0 0 1 5,4 H 6 V 3 a 1,1 0 0 1 2,0 v 1 h 11 a 1,1 0 0 1 0,2 H 8 V 7 A 1,1 0 0 1 6,7 Z m 3,12 v -1 a 1,1 0 1 1 2,0 v 1 h 8 a 1,1 0 0 1 0,2 h -8 v 1 A 1,1 0 1 1 9,21 V 20 H 5 a 1,1 0 1 1 0,-2 z"
     id="path2"
     inkscape:connector-curvature="0"
     style="fill:#588bf8;fill-opacity:1" />
</svg>
