<?xml version="1.0" encoding="UTF-8" standalone="no"?>
<!-- Generator: Adobe Illustrator 18.1.1, SVG Export Plug-In . SVG Version: 6.00 Build 0)  -->

<svg
   version="1.1"
   id="Capa_1"
   x="0px"
   y="0px"
   viewBox="0 0 612 612"
   style="enable-background:new 0 0 612 612;"
   xml:space="preserve"
   sodipodi:docname="eye.svg"
   inkscape:version="1.1.1 (3bf5ae0d25, 2021-09-20)"
   xmlns:inkscape="http://www.inkscape.org/namespaces/inkscape"
   xmlns:sodipodi="http://sodipodi.sourceforge.net/DTD/sodipodi-0.dtd"
   xmlns="http://www.w3.org/2000/svg"
   xmlns:svg="http://www.w3.org/2000/svg"><defs
   id="defs43" /><sodipodi:namedview
   id="namedview41"
   pagecolor="#ffffff"
   bordercolor="#666666"
   borderopacity="1.0"
   inkscape:pageshadow="2"
   inkscape:pageopacity="0.0"
   inkscape:pagecheckerboard="0"
   showgrid="false"
   inkscape:zoom="1.3366013"
   inkscape:cx="142.15159"
   inkscape:cy="305.62592"
   inkscape:window-width="2560"
   inkscape:window-height="1357"
   inkscape:window-x="0"
   inkscape:window-y="28"
   inkscape:window-maximized="1"
   inkscape:current-layer="g8" />
<g
   id="g8">
	<g
   id="g6"
   style="fill:#626262;fill-opacity:1"
   transform="matrix(1,0,0,1.1215563,0,-14.082659)">
		<path
   d="m 609.608,315.426 c 3.19,-5.874 3.19,-12.979 0,-18.853 -58.464,-107.643 -172.5,-180.72 -303.607,-180.72 -131.107,0 -245.144,73.078 -303.608,180.72 -3.19,5.874 -3.19,12.979 0,18.853 58.465,107.643 172.499,180.721 303.607,180.721 131.108,0 245.143,-73.078 303.608,-180.721 z M 306,451.855 c -80.554,0 -145.855,-65.302 -145.855,-145.855 0,-80.553 65.301,-145.856 145.855,-145.856 80.554,0 145.856,65.302 145.856,145.856 0,80.554 -65.302,145.855 -145.856,145.855 z"
   id="path2"
   style="fill:#626262;fill-opacity:1" />
		<path
   d="m 306,231.67 c -6.136,0 -12.095,0.749 -17.798,2.15 5.841,6.76 9.383,15.563 9.383,25.198 0,21.3 -17.267,38.568 -38.568,38.568 -9.635,0 -18.438,-3.541 -25.198,-9.383 -1.401,5.703 -2.15,11.662 -2.15,17.798 0,41.052 33.279,74.33 74.33,74.33 41.051,0 74.33,-33.279 74.33,-74.33 0,-41.051 -33.277,-74.331 -74.329,-74.331 z"
   id="path4"
   style="fill:#626262;fill-opacity:1" />
	</g>
</g>
<g
   id="g10">
</g>
<g
   id="g12">
</g>
<g
   id="g14">
</g>
<g
   id="g16">
</g>
<g
   id="g18">
</g>
<g
   id="g20">
</g>
<g
   id="g22">
</g>
<g
   id="g24">
</g>
<g
   id="g26">
</g>
<g
   id="g28">
</g>
<g
   id="g30">
</g>
<g
   id="g32">
</g>
<g
   id="g34">
</g>
<g
   id="g36">
</g>
<g
   id="g38">
</g>
</svg>
