<?xml version="1.0" encoding="UTF-8" standalone="no"?>
<svg
   xmlns:dc="http://purl.org/dc/elements/1.1/"
   xmlns:cc="http://creativecommons.org/ns#"
   xmlns:rdf="http://www.w3.org/1999/02/22-rdf-syntax-ns#"
   xmlns:svg="http://www.w3.org/2000/svg"
   xmlns="http://www.w3.org/2000/svg"
   xmlns:sodipodi="http://sodipodi.sourceforge.net/DTD/sodipodi-0.dtd"
   xmlns:inkscape="http://www.inkscape.org/namespaces/inkscape"
   width="64"
   height="64"
   viewBox="0 0 32 32"
   preserveAspectRatio="xMidYMid"
   version="1.1"
   id="svg4"
   sodipodi:docname="kafka_icon.svg"
   inkscape:version="0.92.5 (2060ec1f9f, 2020-04-08)">
  <metadata
     id="metadata10">
    <rdf:RDF>
      <cc:Work
         rdf:about="">
        <dc:format>image/svg+xml</dc:format>
        <dc:type
           rdf:resource="http://purl.org/dc/dcmitype/StillImage" />
      </cc:Work>
    </rdf:RDF>
  </metadata>
  <defs
     id="defs8" />
  <sodipodi:namedview
     pagecolor="#ffffff"
     bordercolor="#666666"
     borderopacity="1"
     objecttolerance="10"
     gridtolerance="10"
     guidetolerance="10"
     inkscape:pageopacity="0"
     inkscape:pageshadow="2"
     inkscape:window-width="640"
     inkscape:window-height="480"
     id="namedview6"
     showgrid="false"
     inkscape:zoom="3.6875"
     inkscape:cx="32"
     inkscape:cy="32"
     inkscape:window-x="0"
     inkscape:window-y="28"
     inkscape:window-maximized="0"
     inkscape:current-layer="svg4" />
  <path
     d="m 22.080373,17.859593 a 4.16,4.16 0 0 0 -3.128,1.42 l -1.96,-1.388 c 0.208,-0.573 0.328,-1.188 0.328,-1.832 a 5.35,5.35 0 0 0 -0.317,-1.802 l 1.956,-1.373 a 4.16,4.16 0 0 0 3.122,1.414 4.18,4.18 0 0 0 4.172,-4.172 4.18,4.18 0 0 0 -4.172,-4.1719998 4.18,4.18 0 0 0 -4.172,4.1719998 c 0,0.412 0.062,0.8 0.174,1.185 l -1.957,1.374 c -0.818,-1.014 -1.995,-1.723 -3.336,-1.94 V 8.3855932 a 4.18,4.18 0 0 0 3.313,-4.082 4.18,4.18 0 0 0 -4.173,-4.16799998 4.18,4.18 0 0 0 -4.1720001,4.17199998 c 0,1.98 1.387,3.637 3.2400001,4.063 v 2.3999998 c -2.5280001,0.432 -4.4560001,2.638 -4.4560001,5.29 0,2.665 1.947,4.88 4.4930001,5.308 v 2.523 c -1.8700001,0.4 -3.2760001,2.08 -3.2760001,4.072 a 4.18,4.18 0 0 0 4.1710001,4.172 4.18,4.18 0 0 0 4.172,-4.172 c 0,-1.993 -1.405,-3.66 -3.276,-4.072 v -2.523 c 1.315,-0.22 2.47,-0.916 3.28,-1.907 l 1.973,1.397 a 4.15,4.15 0 0 0 -0.171,1.173 4.18,4.18 0 0 0 4.172,4.172 4.18,4.18 0 0 0 4.172,-4.172 4.18,4.18 0 0 0 -4.172,-4.172 z m 0,-9.7539998 c 1.115,0 2.022,0.908 2.022,2.0229998 0,1.115 -0.907,2.022 -2.022,2.022 -1.115,0 -2.022,-0.907 -2.022,-2.022 0,-1.1149998 0.907,-2.0229998 2.022,-2.0229998 z m -12.1720001,-3.798 c 0,-1.115 0.9070001,-2.022 2.0230001,-2.022 1.116,0 2.022,0.907 2.022,2.022 0,1.115 -0.907,2.022 -2.022,2.022 -1.115,0 -2.0230001,-0.907 -2.0230001,-2.022 z M 13.952373,27.965593 c 0,1.115 -0.907,2.022 -2.022,2.022 -1.115,0 -2.0230001,-0.907 -2.0230001,-2.022 0,-1.115 0.9070001,-2.022 2.0230001,-2.022 1.116,0 2.022,0.907 2.022,2.022 z m -2.023,-9.082 c -1.556,0 -2.8200001,-1.265 -2.8200001,-2.82 0,-1.555 1.2650001,-2.82 2.8200001,-2.82 1.555,0 2.82,1.265 2.82,2.82 0,1.555 -1.265,2.82 -2.82,2.82 z m 10.15,5.172 c -1.115,0 -2.022,-0.908 -2.022,-2.023 0,-1.115 0.907,-2.022 2.022,-2.022 1.115,0 2.022,0.907 2.022,2.022 0,1.115 -0.907,2.023 -2.022,2.023 z"
     id="path2"
     inkscape:connector-curvature="0" />
</svg>
