<?xml version="1.0" encoding="UTF-8" standalone="no"?>
<svg
   height="1792"
   viewBox="0 0 1792 1792"
   width="1792"
   version="1.1"
   id="svg4"
   sodipodi:docname="1608796_plug_icon.svg"
   inkscape:version="1.1.1 (3bf5ae0d25, 2021-09-20)"
   xmlns:inkscape="http://www.inkscape.org/namespaces/inkscape"
   xmlns:sodipodi="http://sodipodi.sourceforge.net/DTD/sodipodi-0.dtd"
   xmlns="http://www.w3.org/2000/svg"
   xmlns:svg="http://www.w3.org/2000/svg">
  <defs
     id="defs8" />
  <sodipodi:namedview
     id="namedview6"
     pagecolor="#ffffff"
     bordercolor="#666666"
     borderopacity="1.0"
     inkscape:pageshadow="2"
     inkscape:pageopacity="0.0"
     inkscape:pagecheckerboard="0"
     showgrid="false"
     inkscape:zoom="0.45647321"
     inkscape:cx="880.66504"
     inkscape:cy="894.90465"
     inkscape:window-width="2560"
     inkscape:window-height="1357"
     inkscape:window-x="0"
     inkscape:window-y="28"
     inkscape:window-maximized="1"
     inkscape:current-layer="svg4" />
  <path
     d="M1755 453q37 37 37 90t-37 91l-401 400 150 150-160 160q-163 163-389.5 186.5t-411.5-100.5l-362 362h-181v-181l362-362q-124-185-100.5-411.5t186.5-389.5l160-160 150 150 400-401q38-37 91-37t90 37 37 90.5-37 90.5l-400 401 234 234 401-400q38-37 91-37t90 37z"
     id="path2"
     style="fill:#626262;fill-opacity:1" />
</svg>
